<svg xmlns="http://www.w3.org/2000/svg" xmlns:xlink="http://www.w3.org/1999/xlink" width="336" zoomAndPan="magnify" viewBox="0 0 252 143.999998" height="192" preserveAspectRatio="xMidYMid meet" version="1.0"><defs><g/><clipPath id="6849000736"><path d="M 71.273438 43.085938 L 180.894531 43.085938 L 180.894531 65.539062 L 71.273438 65.539062 Z M 71.273438 43.085938 " clip-rule="nonzero"/></clipPath><clipPath id="cde19a6284"><path d="M 74.273438 43.085938 L 177.894531 43.085938 C 178.6875 43.085938 179.453125 43.402344 180.015625 43.964844 C 180.578125 44.527344 180.894531 45.292969 180.894531 46.085938 L 180.894531 62.539062 C 180.894531 63.332031 180.578125 64.097656 180.015625 64.660156 C 179.453125 65.222656 178.6875 65.539062 177.894531 65.539062 L 74.273438 65.539062 C 73.480469 65.539062 72.714844 65.222656 72.152344 64.660156 C 71.589844 64.097656 71.273438 63.332031 71.273438 62.539062 L 71.273438 46.085938 C 71.273438 45.292969 71.589844 44.527344 72.152344 43.964844 C 72.714844 43.402344 73.480469 43.085938 74.273438 43.085938 Z M 74.273438 43.085938 " clip-rule="nonzero"/></clipPath><clipPath id="8877652586"><path d="M 0.273438 0.0859375 L 109.894531 0.0859375 L 109.894531 22.539062 L 0.273438 22.539062 Z M 0.273438 0.0859375 " clip-rule="nonzero"/></clipPath><clipPath id="b166661d52"><path d="M 3.273438 0.0859375 L 106.894531 0.0859375 C 107.6875 0.0859375 108.453125 0.402344 109.015625 0.964844 C 109.578125 1.527344 109.894531 2.292969 109.894531 3.085938 L 109.894531 19.539062 C 109.894531 20.332031 109.578125 21.097656 109.015625 21.660156 C 108.453125 22.222656 107.6875 22.539062 106.894531 22.539062 L 3.273438 22.539062 C 2.480469 22.539062 1.714844 22.222656 1.152344 21.660156 C 0.589844 21.097656 0.273438 20.332031 0.273438 19.539062 L 0.273438 3.085938 C 0.273438 2.292969 0.589844 1.527344 1.152344 0.964844 C 1.714844 0.402344 2.480469 0.0859375 3.273438 0.0859375 Z M 3.273438 0.0859375 " clip-rule="nonzero"/></clipPath><clipPath id="dda64b32e2"><rect x="0" width="110" y="0" height="23"/></clipPath></defs><rect x="-25.2" width="302.4" fill="#ffffff" y="-14.4" height="172.799997" fill-opacity="1"/><rect x="-25.2" width="302.4" fill="#ffffff" y="-14.4" height="172.799997" fill-opacity="1"/><g clip-path="url(#6849000736)"><g clip-path="url(#cde19a6284)"><g transform="matrix(1, 0, 0, 1, 71, 43)"><g clip-path="url(#dda64b32e2)"><g clip-path="url(#8877652586)"><g clip-path="url(#b166661d52)"><path fill="#ffffff" d="M 0.273438 0.0859375 L 109.894531 0.0859375 L 109.894531 22.539062 L 0.273438 22.539062 Z M 0.273438 0.0859375 " fill-opacity="1" fill-rule="nonzero"/></g></g></g></g></g></g><g fill="#ffffff" fill-opacity="1"><g transform="translate(74.390623, 61.437406)"><g><path d="M 11.8125 -13.65625 C 12.4375 -13.226562 12.75 -12.8125 12.75 -12.40625 C 12.75 -12.164062 12.601562 -11.832031 12.3125 -11.40625 L 8.203125 -5.265625 L 8.203125 -1.640625 C 8.203125 -1.347656 8.191406 -1.128906 8.171875 -0.984375 C 8.160156 -0.835938 8.101562 -0.664062 8 -0.46875 C 7.894531 -0.28125 7.722656 -0.148438 7.484375 -0.078125 C 7.242188 -0.00390625 6.921875 0.03125 6.515625 0.03125 C 6.109375 0.03125 5.785156 -0.00390625 5.546875 -0.078125 C 5.304688 -0.148438 5.132812 -0.285156 5.03125 -0.484375 C 4.9375 -0.679688 4.878906 -0.851562 4.859375 -1 C 4.835938 -1.144531 4.828125 -1.367188 4.828125 -1.671875 L 4.828125 -5.265625 L 0.71875 -11.40625 C 0.425781 -11.832031 0.28125 -12.164062 0.28125 -12.40625 C 0.28125 -12.8125 0.554688 -13.203125 1.109375 -13.578125 C 1.671875 -13.953125 2.070312 -14.140625 2.3125 -14.140625 C 2.550781 -14.140625 2.742188 -14.085938 2.890625 -13.984375 C 3.109375 -13.847656 3.335938 -13.585938 3.578125 -13.203125 L 6.515625 -8.5 L 9.46875 -13.203125 C 9.707031 -13.585938 9.914062 -13.835938 10.09375 -13.953125 C 10.269531 -14.078125 10.472656 -14.140625 10.703125 -14.140625 C 10.941406 -14.140625 11.3125 -13.976562 11.8125 -13.65625 Z M 11.8125 -13.65625 "/></g></g></g><g fill="#ffffff" fill-opacity="1"><g transform="translate(87.421964, 61.437406)"><g><path d="M 7.296875 -14.09375 C 9.171875 -14.09375 10.796875 -13.414062 12.171875 -12.0625 C 13.554688 -10.707031 14.25 -9.023438 14.25 -7.015625 C 14.25 -5.015625 13.585938 -3.304688 12.265625 -1.890625 C 10.953125 -0.472656 9.332031 0.234375 7.40625 0.234375 C 5.476562 0.234375 3.835938 -0.460938 2.484375 -1.859375 C 1.140625 -3.253906 0.46875 -4.914062 0.46875 -6.84375 C 0.46875 -7.894531 0.65625 -8.878906 1.03125 -9.796875 C 1.414062 -10.710938 1.925781 -11.476562 2.5625 -12.09375 C 3.195312 -12.71875 3.925781 -13.207031 4.75 -13.5625 C 5.570312 -13.914062 6.421875 -14.09375 7.296875 -14.09375 Z M 3.84375 -6.9375 C 3.84375 -5.8125 4.203125 -4.894531 4.921875 -4.1875 C 5.648438 -3.488281 6.460938 -3.140625 7.359375 -3.140625 C 8.265625 -3.140625 9.078125 -3.476562 9.796875 -4.15625 C 10.523438 -4.84375 10.890625 -5.757812 10.890625 -6.90625 C 10.890625 -8.0625 10.523438 -8.988281 9.796875 -9.6875 C 9.066406 -10.382812 8.25 -10.734375 7.34375 -10.734375 C 6.445312 -10.734375 5.640625 -10.378906 4.921875 -9.671875 C 4.203125 -8.972656 3.84375 -8.0625 3.84375 -6.9375 Z M 3.84375 -6.9375 "/></g></g></g><g fill="#ffffff" fill-opacity="1"><g transform="translate(102.143952, 61.437406)"><g><path d="M 4.125 -2.8125 L 9.296875 -2.8125 C 9.710938 -2.8125 10.015625 -2.765625 10.203125 -2.671875 C 10.390625 -2.578125 10.515625 -2.425781 10.578125 -2.21875 C 10.640625 -2.019531 10.671875 -1.75 10.671875 -1.40625 C 10.671875 -1.070312 10.640625 -0.800781 10.578125 -0.59375 C 10.515625 -0.394531 10.410156 -0.257812 10.265625 -0.1875 C 10.023438 -0.0625 9.691406 0 9.265625 0 L 2.4375 0 C 1.550781 0 1.03125 -0.238281 0.875 -0.71875 C 0.800781 -0.925781 0.765625 -1.25 0.765625 -1.6875 L 0.765625 -12.25 C 0.765625 -12.539062 0.769531 -12.757812 0.78125 -12.90625 C 0.800781 -13.050781 0.863281 -13.21875 0.96875 -13.40625 C 1.144531 -13.75 1.640625 -13.921875 2.453125 -13.921875 C 3.335938 -13.921875 3.863281 -13.6875 4.03125 -13.21875 C 4.09375 -13.007812 4.125 -12.679688 4.125 -12.234375 Z M 4.125 -2.8125 "/></g></g></g><g fill="#ffffff" fill-opacity="1"><g transform="translate(113.294674, 61.437406)"><g><path d="M 4.125 -3.359375 L 9.96875 -3.359375 C 10.257812 -3.359375 10.476562 -3.347656 10.625 -3.328125 C 10.769531 -3.316406 10.941406 -3.257812 11.140625 -3.15625 C 11.472656 -2.976562 11.640625 -2.484375 11.640625 -1.671875 C 11.640625 -0.785156 11.40625 -0.265625 10.9375 -0.109375 C 10.726562 -0.0351562 10.398438 0 9.953125 0 L 2.4375 0 C 1.550781 0 1.03125 -0.238281 0.875 -0.71875 C 0.800781 -0.925781 0.765625 -1.25 0.765625 -1.6875 L 0.765625 -12.25 C 0.765625 -12.894531 0.882812 -13.332031 1.125 -13.5625 C 1.363281 -13.800781 1.816406 -13.921875 2.484375 -13.921875 L 9.96875 -13.921875 C 10.257812 -13.921875 10.476562 -13.910156 10.625 -13.890625 C 10.769531 -13.878906 10.941406 -13.820312 11.140625 -13.71875 C 11.472656 -13.539062 11.640625 -13.046875 11.640625 -12.234375 C 11.640625 -11.347656 11.40625 -10.828125 10.9375 -10.671875 C 10.726562 -10.597656 10.398438 -10.5625 9.953125 -10.5625 L 4.125 -10.5625 L 4.125 -8.640625 L 7.890625 -8.640625 C 8.179688 -8.640625 8.398438 -8.628906 8.546875 -8.609375 C 8.691406 -8.597656 8.859375 -8.539062 9.046875 -8.4375 C 9.390625 -8.257812 9.5625 -7.765625 9.5625 -6.953125 C 9.5625 -6.066406 9.316406 -5.546875 8.828125 -5.390625 C 8.617188 -5.316406 8.289062 -5.28125 7.84375 -5.28125 L 4.125 -5.28125 Z M 4.125 -3.359375 "/></g></g></g><g fill="#ffffff" fill-opacity="1"><g transform="translate(125.414195, 61.437406)"><g><path d="M 1.671875 -13.953125 L 12.234375 -13.953125 C 12.640625 -13.953125 12.9375 -13.898438 13.125 -13.796875 C 13.3125 -13.703125 13.4375 -13.550781 13.5 -13.34375 C 13.570312 -13.144531 13.609375 -12.878906 13.609375 -12.546875 C 13.609375 -12.222656 13.570312 -11.960938 13.5 -11.765625 C 13.4375 -11.566406 13.332031 -11.429688 13.1875 -11.359375 C 12.957031 -11.242188 12.632812 -11.1875 12.21875 -11.1875 L 8.59375 -11.1875 L 8.59375 -1.640625 C 8.59375 -1.347656 8.582031 -1.128906 8.5625 -0.984375 C 8.539062 -0.847656 8.484375 -0.6875 8.390625 -0.5 C 8.296875 -0.320312 8.128906 -0.191406 7.890625 -0.109375 C 7.648438 -0.0351562 7.332031 0 6.9375 0 C 6.539062 0 6.222656 -0.0351562 5.984375 -0.109375 C 5.753906 -0.191406 5.59375 -0.320312 5.5 -0.5 C 5.40625 -0.6875 5.347656 -0.851562 5.328125 -1 C 5.304688 -1.144531 5.296875 -1.363281 5.296875 -1.65625 L 5.296875 -11.1875 L 1.65625 -11.1875 C 1.25 -11.1875 0.945312 -11.234375 0.75 -11.328125 C 0.5625 -11.421875 0.4375 -11.566406 0.375 -11.765625 C 0.3125 -11.972656 0.28125 -12.242188 0.28125 -12.578125 C 0.28125 -12.910156 0.3125 -13.171875 0.375 -13.359375 C 0.4375 -13.554688 0.546875 -13.695312 0.703125 -13.78125 C 0.929688 -13.894531 1.253906 -13.953125 1.671875 -13.953125 Z M 1.671875 -13.953125 "/></g></g></g><g fill="#ffffff" fill-opacity="1"><g transform="translate(139.300352, 61.437406)"><g><path d="M 4.125 -3.359375 L 9.96875 -3.359375 C 10.257812 -3.359375 10.476562 -3.347656 10.625 -3.328125 C 10.769531 -3.316406 10.941406 -3.257812 11.140625 -3.15625 C 11.472656 -2.976562 11.640625 -2.484375 11.640625 -1.671875 C 11.640625 -0.785156 11.40625 -0.265625 10.9375 -0.109375 C 10.726562 -0.0351562 10.398438 0 9.953125 0 L 2.4375 0 C 1.550781 0 1.03125 -0.238281 0.875 -0.71875 C 0.800781 -0.925781 0.765625 -1.25 0.765625 -1.6875 L 0.765625 -12.25 C 0.765625 -12.894531 0.882812 -13.332031 1.125 -13.5625 C 1.363281 -13.800781 1.816406 -13.921875 2.484375 -13.921875 L 9.96875 -13.921875 C 10.257812 -13.921875 10.476562 -13.910156 10.625 -13.890625 C 10.769531 -13.878906 10.941406 -13.820312 11.140625 -13.71875 C 11.472656 -13.539062 11.640625 -13.046875 11.640625 -12.234375 C 11.640625 -11.347656 11.40625 -10.828125 10.9375 -10.671875 C 10.726562 -10.597656 10.398438 -10.5625 9.953125 -10.5625 L 4.125 -10.5625 L 4.125 -8.640625 L 7.890625 -8.640625 C 8.179688 -8.640625 8.398438 -8.628906 8.546875 -8.609375 C 8.691406 -8.597656 8.859375 -8.539062 9.046875 -8.4375 C 9.390625 -8.257812 9.5625 -7.765625 9.5625 -6.953125 C 9.5625 -6.066406 9.316406 -5.546875 8.828125 -5.390625 C 8.617188 -5.316406 8.289062 -5.28125 7.84375 -5.28125 L 4.125 -5.28125 Z M 4.125 -3.359375 "/></g></g></g><g fill="#ffffff" fill-opacity="1"><g transform="translate(151.419873, 61.437406)"><g><path d="M 9.46875 -3.640625 L 9.796875 -3.890625 C 10.234375 -4.148438 10.539062 -4.28125 10.71875 -4.28125 C 11.113281 -4.28125 11.535156 -3.925781 11.984375 -3.21875 C 12.265625 -2.769531 12.40625 -2.410156 12.40625 -2.140625 C 12.40625 -1.878906 12.316406 -1.660156 12.140625 -1.484375 C 11.972656 -1.304688 11.773438 -1.144531 11.546875 -1 C 11.316406 -0.863281 11.097656 -0.734375 10.890625 -0.609375 C 10.679688 -0.484375 10.253906 -0.316406 9.609375 -0.109375 C 8.960938 0.0859375 8.335938 0.1875 7.734375 0.1875 C 7.140625 0.1875 6.535156 0.109375 5.921875 -0.046875 C 5.304688 -0.203125 4.671875 -0.46875 4.015625 -0.84375 C 3.367188 -1.21875 2.785156 -1.671875 2.265625 -2.203125 C 1.742188 -2.742188 1.3125 -3.4375 0.96875 -4.28125 C 0.632812 -5.125 0.46875 -6.039062 0.46875 -7.03125 C 0.46875 -8.019531 0.632812 -8.914062 0.96875 -9.71875 C 1.300781 -10.519531 1.722656 -11.179688 2.234375 -11.703125 C 2.742188 -12.234375 3.328125 -12.675781 3.984375 -13.03125 C 5.234375 -13.71875 6.484375 -14.0625 7.734375 -14.0625 C 8.328125 -14.0625 8.929688 -13.96875 9.546875 -13.78125 C 10.160156 -13.601562 10.625 -13.414062 10.9375 -13.21875 L 11.40625 -12.953125 C 11.625 -12.816406 11.800781 -12.703125 11.9375 -12.609375 C 12.257812 -12.347656 12.421875 -12.046875 12.421875 -11.703125 C 12.421875 -11.367188 12.289062 -11.019531 12.03125 -10.65625 C 11.53125 -9.976562 11.085938 -9.640625 10.703125 -9.640625 C 10.472656 -9.640625 10.148438 -9.773438 9.734375 -10.046875 C 9.203125 -10.484375 8.488281 -10.703125 7.59375 -10.703125 C 6.769531 -10.703125 5.960938 -10.414062 5.171875 -9.84375 C 4.785156 -9.5625 4.46875 -9.164062 4.21875 -8.65625 C 3.96875 -8.15625 3.84375 -7.582031 3.84375 -6.9375 C 3.84375 -6.300781 3.96875 -5.726562 4.21875 -5.21875 C 4.46875 -4.71875 4.789062 -4.320312 5.1875 -4.03125 C 5.957031 -3.46875 6.757812 -3.1875 7.59375 -3.1875 C 7.988281 -3.1875 8.359375 -3.238281 8.703125 -3.34375 C 9.054688 -3.445312 9.3125 -3.546875 9.46875 -3.640625 Z M 9.46875 -3.640625 "/></g></g></g><g fill="#ffffff" fill-opacity="1"><g transform="translate(164.318234, 61.437406)"><g><path d="M 9.359375 -13.40625 C 9.460938 -13.601562 9.632812 -13.738281 9.875 -13.8125 C 10.113281 -13.882812 10.414062 -13.921875 10.78125 -13.921875 C 11.15625 -13.921875 11.445312 -13.890625 11.65625 -13.828125 C 11.875 -13.765625 12.039062 -13.6875 12.15625 -13.59375 C 12.269531 -13.507812 12.359375 -13.382812 12.421875 -13.21875 C 12.484375 -13.007812 12.515625 -12.679688 12.515625 -12.234375 L 12.515625 -1.6875 C 12.515625 -1.394531 12.503906 -1.175781 12.484375 -1.03125 C 12.472656 -0.882812 12.414062 -0.71875 12.3125 -0.53125 C 12.132812 -0.1875 11.640625 -0.015625 10.828125 -0.015625 C 9.941406 -0.015625 9.421875 -0.25 9.265625 -0.71875 C 9.191406 -0.9375 9.15625 -1.265625 9.15625 -1.703125 L 9.15625 -5.5625 L 4.125 -5.5625 L 4.125 -1.6875 C 4.125 -1.394531 4.113281 -1.175781 4.09375 -1.03125 C 4.070312 -0.882812 4.007812 -0.71875 3.90625 -0.53125 C 3.726562 -0.1875 3.238281 -0.015625 2.4375 -0.015625 C 1.550781 -0.015625 1.03125 -0.25 0.875 -0.71875 C 0.800781 -0.9375 0.765625 -1.265625 0.765625 -1.703125 L 0.765625 -12.25 C 0.765625 -12.539062 0.769531 -12.757812 0.78125 -12.90625 C 0.800781 -13.050781 0.863281 -13.21875 0.96875 -13.40625 C 1.144531 -13.75 1.640625 -13.921875 2.453125 -13.921875 C 3.335938 -13.921875 3.863281 -13.6875 4.03125 -13.21875 C 4.09375 -13.007812 4.125 -12.679688 4.125 -12.234375 L 4.125 -8.359375 L 9.15625 -8.359375 L 9.15625 -12.25 C 9.15625 -12.539062 9.164062 -12.757812 9.1875 -12.90625 C 9.207031 -13.050781 9.265625 -13.21875 9.359375 -13.40625 Z M 9.359375 -13.40625 "/></g></g></g></svg>